<?xml version="1.0" standalone="no"?>
<!DOCTYPE svg PUBLIC "-//W3C//DTD SVG 20010904//EN"
 "http://www.w3.org/TR/2001/REC-SVG-20010904/DTD/svg10.dtd">
<svg version="1.0" xmlns="http://www.w3.org/2000/svg"
 width="1920.000000pt" height="1080.000000pt" viewBox="0 0 1920.000000 1080.000000"
 preserveAspectRatio="xMidYMid meet">

<g transform="translate(0.000000,1080.000000) scale(0.100000,-0.100000)"
fill="#000000" stroke="none">
<path d="M5555 10782 c-40 -25 -181 -175 -268 -287 -260 -333 -431 -695 -521
-1100 -95 -423 -86 -878 25 -1305 l29 -116 -20 -59 c-124 -359 -143 -812 -50
-1192 54 -222 88 -305 133 -326 18 -8 372 -108 787 -222 415 -113 762 -208
770 -210 12 -4 15 -31 16 -162 1 -184 18 -298 70 -453 146 -439 475 -770 919
-925 l90 -31 3 -129 c1 -71 -1 -132 -5 -136 -8 -8 -1557 -369 -1583 -369 -11
0 -74 136 -204 440 -149 348 -194 445 -218 465 l-30 25 -1176 0 c-921 0 -1182
-3 -1202 -13 -14 -7 -33 -28 -42 -47 -17 -33 -18 -163 -18 -2283 0 -1920 2
-2253 14 -2282 29 -69 -24 -65 981 -65 l905 0 34 33 c18 17 240 358 492 756
l458 724 50 23 c28 12 1027 437 2220 944 1193 507 2179 928 2191 936 12 8 27
26 33 40 9 18 12 218 12 729 l0 705 1999 0 2000 0 26 22 c18 17 117 244 366
843 415 998 1292 3246 1293 3312 1 33 -5 48 -25 68 -23 24 -355 109 -3295 846
l-3269 819 -1980 0 c-1903 0 -1981 -1 -2010 -18z m9435 -2978 l0 -1155 -322
-775 -322 -774 -1963 0 -1962 0 -25 83 c-89 301 -105 634 -45 932 22 111 57
236 69 248 4 5 106 -19 227 -52 121 -34 234 -61 252 -61 53 0 86 42 100 125
23 133 82 387 131 558 195 687 507 1321 938 1908 l87 118 1418 1 1417 0 0
-1156z m-9701 -30 c152 -42 279 -79 284 -83 4 -4 -4 -50 -18 -102 -94 -353
-69 -735 69 -1079 25 -63 44 -115 43 -116 -5 -5 -651 176 -658 184 -4 4 -17
38 -28 76 -57 187 -82 360 -82 580 0 193 16 322 61 495 17 62 30 115 30 117 0
9 39 0 299 -72z m2726 -744 c1209 -331 2200 -602 2202 -603 1 -2 -8 -37 -21
-78 -105 -341 -114 -799 -22 -1146 9 -34 11 -53 4 -53 -6 0 -477 129 -1047
286 -570 157 -1259 346 -1531 421 -272 75 -751 207 -1065 293 l-570 157 -26
39 c-87 129 -184 381 -215 559 -33 196 -20 446 36 653 18 66 26 82 39 77 9 -2
1006 -275 2216 -605z m-199 -1445 c690 -191 664 -183 664 -197 0 -6 -35 -46
-79 -88 -90 -88 -193 -147 -316 -181 -113 -31 -285 -24 -400 15 -254 87 -433
302 -480 579 -3 20 -2 37 3 37 4 0 278 -74 608 -165z m1341 -1032 c-2 -2 -115
-2 -251 -1 l-248 3 74 51 c162 114 306 260 392 398 l31 49 3 -248 c1 -136 1
-250 -1 -252z"/>
<path d="M13195 8589 c-229 -30 -481 -141 -677 -299 -298 -240 -518 -588 -619
-978 -84 -327 -76 -684 22 -984 126 -386 395 -679 737 -802 141 -50 205 -61
377 -60 199 0 327 27 503 105 482 212 839 676 965 1254 61 276 50 599 -28 870
-31 106 -113 282 -178 380 -248 376 -663 569 -1102 514z m132 -1253 c79 -66
71 -281 -14 -451 -14 -27 -53 -77 -88 -111 -95 -96 -156 -98 -198 -6 -32 69
-29 199 6 308 31 95 106 207 163 246 68 45 91 48 131 14z"/>
</g>
</svg>
